# xmcd CD database file
#
# Track frame offsets:
#	150
#	15271
#	29436
#	47871
#	70857
#	92791
#	104795
#	124700
#	150823
#	167923
#	187886
#	207713
#	226495
#
# Disc length: 3179 seconds
#
# Revision: 0
# Processed by: cddbd v1.4PL0 Copyright (c) Steve Scherf et al.
# Submitted via: CDex 1.51
#
DISCID=aa0c690d
DTITLE=Bottle Up and Go! - Storyteller
DYEAR=1900
DGENRE=Blues
TTITLE0=Big boss man | High heel sneakers
TTITLE1=Bottles shuffle
TTITLE2=Tobacco road
TTITLE3=Crossroads
TTITLE4=Kouba's Blues
TTITLE5=Messin' with the kid
TTITLE6=Tore down
TTITLE7=Little red rooster
TTITLE8=Glory bee | Divin' duck Blues
TTITLE9=The sky is crying
TTITLE10=Same thing
TTITLE11=Walking down Broadway
TTITLE12=Die Rösser
EXTD=
EXTT0=
EXTT1=
EXTT2=
EXTT3=
EXTT4=
EXTT5=
EXTT6=
EXTT7=
EXTT8=
EXTT9=
EXTT10=
EXTT11=
EXTT12=
PLAYORDER=
